# xmcd CD database file
#
# Track frame offsets:
#	150
#	9942
#	25570
#	40050
#	52460
#	64912
#	76085
#	86847
#	96120
#	112285
#	123800
#	135422
#	145287
#	159795
#	168750
#	180860
#	190580
#	201060
#	214947
#	224922
#	228880
#	240172
#	249650
#	255787
#	265632
#	271020
#
# Disc length: 3703 seconds
#
# Revision: 3
# Processed by: cddbd v1.5.2PL0 Copyright (c) Steve Scherf et al.
# Submitted via: CDex 1.85
#
DISCID=500e751a
DTITLE=Marvin and Johnny - Flipped Out
DYEAR=1900
DGENRE=Blues
TTITLE0=Wine Woogie (1952)
TTITLE1=Old Man's Blues (1952)
TTITLE2=Dream Girl (1952)
TTITLE3=As Long As You're Satisfied (1953)
TTITLE4=My Baby Won't Let Me In (1953)
TTITLE5=Sun Was Shining (1953)
TTITLE6=Baby Doll (1953)
TTITLE7=I'm Not A Fool (1953)
TTITLE8=Jo Jo (1954)
TTITLE9=Honey (Take 3) (1953)
TTITLE10=Honey (Take 4) (1954)
TTITLE11=How Long She Been Gone (1954)
TTITLE12=If I Should Lose You (1953)
TTITLE13=Boy Loves Girl (1954)
TTITLE14=School Of Love (1954)
TTITLE15=I Want Lovin' (1953)
TTITLE16=Day In-Day Out (1954)
TTITLE17=What's The Matter aka Hey Baby (1955)
TTITLE18=Flip (1953)
TTITLE19=Hunter Hancock Radion Ad
TTITLE20=Mamo Mamo (1955)
TTITLE21=Ding Dong Baby (1955)
TTITLE22=Tell Me Darling (1956)
TTITLE23=Yak Yak Woman (1956)
TTITLE24=Pretty One (1956)
TTITLE25=Bye Bye My Baby (1956)
EXTD=
EXTT0=
EXTT1=
EXTT2=
EXTT3=
EXTT4=
EXTT5=
EXTT6=
EXTT7=
EXTT8=
EXTT9=
EXTT10=
EXTT11=
EXTT12=
EXTT13=
EXTT14=
EXTT15=
EXTT16=
EXTT17=
EXTT18=
EXTT19=
EXTT20=
EXTT21=
EXTT22=
EXTT23=
EXTT24=
EXTT25=
PLAYORDER=
